<svg xmlns="http://www.w3.org/2000/svg" version="1.1" xmlns:xlink="http://www.w3.org/1999/xlink" xmlns:svgjs="http://svgjs.dev/svgjs" width="2000" height="2000" viewBox="0 0 2000 2000"><g transform="matrix(1,0,0,1,-0.9999999999998863,-0.9999999999998863)"><svg viewBox="0 0 280 280" data-background-color="#ffffff" preserveAspectRatio="xMidYMid meet" height="2000" width="2000" xmlns="http://www.w3.org/2000/svg" xmlns:xlink="http://www.w3.org/1999/xlink"><g id="tight-bounds" transform="matrix(1,0,0,1,0.13999999999998636,0.13999999999998636)"><svg viewBox="0 0 279.72 279.72" height="279.72" width="279.72"><g><svg viewBox="0 0 279.72 279.72" height="279.72" width="279.72"><g><svg viewBox="0 0 279.72 279.72" height="279.72" width="279.72"><g id="textblocktransform"><svg viewBox="0 0 279.72 279.72" height="279.72" width="279.72" id="textblock"><g><svg viewBox="0 0 279.72 279.72" height="279.72" width="279.72"><g transform="matrix(1,0,0,1,57.446704652707865,57.446704652707865)"><svg viewBox="0 0 164.8265906945843 164.8265906945843" height="164.8265906945843" width="164.8265906945843"><g id="icon-0"><circle r="82" cx="82.41329534729215" cy="82.41329534729215" fill="#5ebc67" data-fill-palette-color="accent"></circle><svg xmlns="http://www.w3.org/2000/svg" viewBox="0 0 40 51" x="24.723988604187646" y="24.72398860418764" height="115.378613486209" width="115.378613486209" class="icon-jxe-0" data-fill-palette-color="quaternary" id="jxe-0"><g data-name="Layer 2" fill="#ffffff" data-fill-palette-color="quaternary"><g data-name="Layer 1" fill="#ffffff" data-fill-palette-color="quaternary"><circle cx="13" cy="20.5" r="1.5" fill="#ffffff" data-fill-palette-color="quaternary"></circle><circle cx="27" cy="20.5" r="1.5" fill="#ffffff" data-fill-palette-color="quaternary"></circle><path d="M20 31.6A3.34 3.34 0 0 0 23.34 28.26 1 1 0 0 0 21.34 28.26 1.34 1.34 0 1 1 18.66 28.26 1 1 0 0 0 16.66 28.26 3.34 3.34 0 0 0 20 31.6" fill="#ffffff" data-fill-palette-color="quaternary"></path><path d="M20 25.09A2.77 2.77 0 0 0 21.72 24.52 1 1 0 1 0 20.48 23 0.89 0.89 0 0 1 19.48 23 1 1 0 1 0 18.25 24.58 2.82 2.82 0 0 0 20 25.09" fill="#ffffff" data-fill-palette-color="quaternary"></path><path d="M33.8 36.08L28.93 34.08A15.16 15.16 0 0 0 33.69 27.08 6 6 0 0 0 36.81 16.5C36.16 6.47 29.61 0 20 0S4.08 6.27 3.46 16.4A5.74 5.74 0 0 0 1 21.15 6 6 0 0 0 6.31 27.15 15.16 15.16 0 0 0 11.07 34.15L6.17 36.15C3.19 37.44 0 39.2 0 43V50A1 1 0 0 0 2 50V43C2 40.64 3.83 39.34 7 37.92L11 36.25A9 9 0 0 0 29 36.25L33 37.91C36.16 39.34 38 40.63 38 43V50A1 1 0 0 0 40 50V43C40 39.2 36.81 37.44 33.8 36.08M20 2C28.09 2 33.73 7.24 34.72 15.48L33.72 15.26 33.37 15.19A16.67 16.67 0 0 1 25.76 9.67 1 1 0 0 0 24.2 9.67C21.67 12.8 18.44 14.67 15.35 14.85A8.3 8.3 0 0 1 13.7 14.77C13.48 14.77 13.28 14.68 13.06 14.63A8.8 8.8 0 0 0 14.34 13.06 1 1 0 1 0 12.67 12 6.8 6.8 0 0 1 10.52 14.13 8 8 0 0 1 9.52 14.65 7.1 7.1 0 0 1 7.16 15.18 12.5 12.5 0 0 0 5.54 15.43C6.43 7 11.75 2 20 2M7.19 22.12A1 1 0 0 0 5.19 22.37 24 24 0 0 0 5.66 24.91 4 4 0 0 1 3 21.15 3.77 3.77 0 0 1 4.91 17.83C5 17.78 5.1 17.74 5.19 17.7V18.16A1 1 0 0 0 7.19 18.16V17.22H7.35A9 9 0 0 0 10.35 16.51C10.6 16.39 10.84 16.27 11.07 16.14A10.7 10.7 0 0 0 13.42 16.77 10.3 10.3 0 0 0 15.42 16.87 14.3 14.3 0 0 0 24.95 11.87 18 18 0 0 0 32.76 17.13S32.76 17.13 32.76 17.19V18.19A1 1 0 0 0 34.76 18.19V17.64A2.6 2.6 0 0 1 35.22 17.89 4 4 0 0 1 34.28 24.95 24 24 0 0 0 34.75 22.43 1 1 0 0 0 32.75 22.18C32.31 26 30.08 35 20 35S7.68 26 7.19 22.12M23.95 36.51A4 4 0 0 1 16.05 36.51 16.14 16.14 0 0 0 23.95 36.51M20 43A7 7 0 0 1 13 36V35.35C13.32 35.52 13.65 35.67 14 35.82A1 1 0 0 0 14 36 6 6 0 0 0 26 36 1 1 0 0 0 26 35.82C26.34 35.68 26.67 35.52 27 35.35V36A7 7 0 0 1 20 43" fill="#ffffff" data-fill-palette-color="quaternary"></path></g></g></svg></g></svg></g><g id="text-0"><path d="M35.644 104.136l-1.215 3.456-26.074-9.159 1.214-3.457zM14.706 87.815l-6.825 19.428-2.895-1.017 6.825-19.428z" fill="#152232" data-fill-palette-color="primary"></path><path d="M51.79 74.138l-1.896 3.04-11.383-7.097c-0.982-0.612-1.914-1.007-2.795-1.184-0.881-0.177-1.707-0.085-2.479 0.275-0.771 0.36-1.485 1.065-2.139 2.115v0c-0.602 0.965-0.937 1.91-1.006 2.834-0.078 0.927 0.058 1.796 0.407 2.609 0.352 0.822 0.868 1.564 1.55 2.227v0l-2.581-0.669 0.492-0.788c-0.71-0.705-1.251-1.517-1.621-2.437-0.366-0.926-0.49-1.935-0.372-3.028 0.122-1.098 0.56-2.252 1.314-3.462v0c0.904-1.45 1.91-2.453 3.018-3.008 1.104-0.549 2.302-0.71 3.595-0.482 1.284 0.23 2.677 0.813 4.179 1.749v0zM44.153 86.386l-1.89 3.032-24.839-15.487 1.88-3.015 5.961 3.717 5.192 3.368 0.309 0.038z" fill="#152232" data-fill-palette-color="primary"></path><path d="M64.569 61.637v0c-2.33 2.314-4.649 3.488-6.957 3.523-2.313 0.03-4.522-1.015-6.627-3.135v0l-2.709-2.729c-2.139-2.153-3.24-4.355-3.304-6.606-0.059-2.256 0.967-4.431 3.078-6.527v0c1.423-1.413 2.87-2.329 4.342-2.747 1.476-0.414 2.939-0.373 4.389 0.122 1.445 0.49 2.836 1.409 4.173 2.755v0l0.562 0.566c0.332 0.334 0.65 0.683 0.952 1.045 0.308 0.358 0.602 0.721 0.882 1.088v0l-2.335 2.319c-0.479-0.52-0.939-1.007-1.38-1.461-0.441-0.454-0.849-0.869-1.223-1.246v0c-0.925-0.931-1.853-1.569-2.784-1.915-0.936-0.351-1.869-0.401-2.797-0.153-0.929 0.249-1.837 0.814-2.726 1.697v0c-1.313 1.304-1.92 2.665-1.82 4.083 0.095 1.414 0.849 2.832 2.263 4.255v0l1.45 1.461 0.321 0.293 1.451 1.462c0.631 0.635 1.295 1.118 1.993 1.448 0.698 0.321 1.433 0.469 2.204 0.443 0.766-0.031 1.557-0.256 2.372-0.677 0.815-0.43 1.65-1.07 2.505-1.918v0c0.993-0.986 1.791-2.035 2.394-3.147 0.594-1.111 1.045-2.266 1.354-3.464v0l1.94 2.427c-0.251 1.103-0.7 2.232-1.346 3.385-0.646 1.144-1.519 2.262-2.617 3.353zM62.82 49.519l-10.879 10.804-1.899-1.913 10.879-10.804z" fill="#152232" data-fill-palette-color="primary"></path><path d="M110.273 33.892l-3.971 1.728-14.245-7.946-2.962 1.289-1.164-2.675 2.962-1.289 4.024-15.214 3.832-1.667-4.641 17.364-0.381-0.825zM94.539 40.739l-3.351 1.458-11.264-25.887 3.35-1.458z" fill="#152232" data-fill-palette-color="primary"></path><path d="M121.232 31.5l-3.486 0.828-4.983-20.976 3.486-0.828zM113.694 7.5v0c-0.72 0.171-1.299 0.108-1.736-0.19-0.444-0.296-0.744-0.774-0.901-1.435v0l-0.026-0.108c-0.16-0.674-0.108-1.24 0.157-1.697 0.258-0.456 0.748-0.769 1.468-0.94v0c0.714-0.17 1.295-0.11 1.743 0.177 0.449 0.288 0.753 0.769 0.914 1.443v0l0.025 0.108c0.16 0.674 0.105 1.241-0.166 1.699-0.271 0.459-0.764 0.773-1.478 0.943z" fill="#152232" data-fill-palette-color="primary"></path><path d="M138.054 30.294v0c-2.593 0.146-4.61-0.546-6.052-2.075-1.44-1.523-2.247-3.823-2.42-6.901v0l-0.199-3.547c-0.174-3.091 0.375-5.487 1.648-7.19 1.28-1.696 3.25-2.619 5.91-2.768v0c1.324-0.074 2.482 0.083 3.474 0.471 0.999 0.395 1.824 0.982 2.474 1.762 0.643 0.773 1.1 1.704 1.371 2.794v0l1.169-0.066-0.874 3.345c-0.118-1.26-0.46-2.306-1.025-3.137-0.572-0.831-1.315-1.442-2.227-1.836-0.918-0.386-1.952-0.547-3.1-0.483v0c-1.821 0.102-3.182 0.708-4.083 1.817-0.908 1.116-1.304 2.702-1.188 4.758v0l0.23 4.101c0.114 2.029 0.685 3.547 1.712 4.555 1.02 1.001 2.44 1.45 4.261 1.347v0c1.088-0.061 2.041-0.324 2.858-0.787 0.816-0.464 1.479-1.084 1.988-1.861 0.509-0.77 0.842-1.631 0.997-2.584v0l1.02 2.501-1.058 0.059c-0.147 0.986-0.49 1.898-1.029 2.737-0.532 0.845-1.275 1.534-2.229 2.066-0.947 0.532-2.157 0.839-3.628 0.922zM148.79 29.225l-3.577 0.202-0.132-5.22-0.135-1.134-0.506-9-0.022-0.757-0.434-6.102-0.395-7.014 3.558-0.2z" fill="#152232" data-fill-palette-color="primary"></path><path d="M164.474 31.933v0c-1.712-0.288-3.174-0.726-4.385-1.312-1.219-0.581-2.213-1.161-2.982-1.74v0l0.222-3.321c0.969 0.73 2.056 1.404 3.262 2.024 1.199 0.618 2.605 1.063 4.217 1.335v0c1.639 0.276 2.917 0.225 3.834-0.153 0.918-0.384 1.464-1.094 1.638-2.129v0l0.04-0.239c0.112-0.664 0.049-1.241-0.189-1.731-0.238-0.49-0.737-0.97-1.498-1.44-0.754-0.468-1.852-0.998-3.294-1.589v0c-1.719-0.692-3.048-1.39-3.987-2.094-0.946-0.705-1.575-1.487-1.888-2.345-0.306-0.857-0.363-1.853-0.172-2.987v0l0.031-0.189c0.314-1.865 1.195-3.166 2.644-3.905 1.456-0.744 3.485-0.897 6.086-0.459v0c1.672 0.282 3.09 0.715 4.254 1.3 1.164 0.585 2.098 1.176 2.803 1.772v0l-0.175 3.042c-0.856-0.711-1.864-1.351-3.023-1.922-1.154-0.563-2.494-0.973-4.02-1.23v0c-1.108-0.187-2.019-0.228-2.733-0.123-0.721 0.11-1.27 0.349-1.646 0.716-0.375 0.36-0.611 0.832-0.709 1.416v0l-0.029 0.169c-0.108 0.644-0.047 1.21 0.185 1.7 0.23 0.496 0.713 0.973 1.448 1.431 0.734 0.465 1.782 0.966 3.145 1.502v0c1.75 0.67 3.116 1.351 4.098 2.042 0.983 0.684 1.641 1.457 1.974 2.318 0.334 0.855 0.398 1.889 0.194 3.103v0l-0.064 0.379c-0.338 2.004-1.289 3.396-2.853 4.176-1.565 0.78-3.707 0.942-6.428 0.483z" fill="#152232" data-fill-palette-color="primary"></path><path d="M202.473 46.177v0c-1.181-0.674-2.206-1.382-3.075-2.126-0.872-0.753-1.611-1.488-2.216-2.206-0.602-0.723-1.081-1.372-1.435-1.946v0l1.481-3.35c0.651 1.154 1.518 2.33 2.6 3.529 1.085 1.208 2.414 2.26 3.987 3.157v0c1.894 1.08 3.488 1.544 4.783 1.392 1.289-0.155 2.318-0.905 3.084-2.249v0l0.176-0.307c0.503-0.883 0.737-1.706 0.7-2.471-0.042-0.768-0.377-1.586-1.005-2.455-0.633-0.873-1.583-1.891-2.848-3.054v0c-1.594-1.483-2.777-2.839-3.547-4.069-0.765-1.226-1.137-2.427-1.118-3.601 0.013-1.178 0.4-2.433 1.16-3.766v0l0.095-0.166c1.147-2.011 2.693-3.186 4.637-3.526 1.939-0.343 4.246 0.249 6.924 1.777v0c1.753 1 3.145 2.03 4.175 3.09 1.03 1.06 1.811 2.033 2.345 2.918v0l-1.38 3.071c-0.599-1.055-1.397-2.114-2.394-3.178-0.993-1.07-2.27-2.05-3.831-2.941v0c-1.239-0.707-2.327-1.13-3.262-1.268-0.938-0.148-1.737-0.045-2.395 0.307-0.658 0.353-1.211 0.921-1.657 1.704v0l-0.04 0.07c-0.453 0.795-0.671 1.57-0.652 2.324 0.016 0.76 0.333 1.589 0.953 2.485 0.614 0.893 1.599 1.977 2.955 3.254v0c1.563 1.457 2.731 2.77 3.504 3.94 0.774 1.17 1.154 2.336 1.142 3.498-0.007 1.166-0.415 2.459-1.225 3.88v0l-0.23 0.403c-1.264 2.215-2.934 3.486-5.01 3.812-2.08 0.332-4.54-0.312-7.381-1.932z" fill="#152232" data-fill-palette-color="primary"></path><path d="M230.903 68.063l-2.645-2.417 9.049-9.903c0.781-0.854 1.338-1.699 1.672-2.533 0.334-0.834 0.394-1.663 0.181-2.487-0.213-0.824-0.777-1.653-1.691-2.489v0c-0.839-0.767-1.708-1.269-2.604-1.504-0.897-0.245-1.777-0.27-2.64-0.074-0.872 0.196-1.696 0.569-2.471 1.118v0l1.127-2.415 0.685 0.626c0.822-0.57 1.719-0.954 2.692-1.15 0.977-0.192 1.992-0.13 3.045 0.185 1.057 0.319 2.113 0.96 3.166 1.922v0c1.262 1.153 2.065 2.324 2.408 3.514 0.339 1.185 0.279 2.393-0.18 3.623-0.459 1.221-1.286 2.485-2.479 3.791v0zM220.248 58.326l-2.638-2.41 19.746-21.608 2.623 2.396-4.739 5.186-4.256 4.493-0.094 0.297z" fill="#152232" data-fill-palette-color="primary"></path><path d="M240.492 82.535v0c-1.734-2.556-2.358-4.967-1.87-7.233 0.485-2.257 2.026-4.265 4.62-6.026v0l2.723-1.847c2.584-1.753 5.016-2.436 7.296-2.047 2.278 0.398 4.281 1.869 6.007 4.413v0c1.738 2.561 2.367 4.969 1.887 7.221-0.482 2.262-2.014 4.27-4.598 6.023v0l-2.723 1.848c-2.595 1.761-5.032 2.447-7.312 2.059-2.282-0.379-4.292-1.849-6.03-4.411zM242.906 80.897v0c1.077 1.587 2.363 2.47 3.86 2.651 1.495 0.189 3.127-0.317 4.898-1.518v0l3.048-2.069c1.754-1.19 2.819-2.515 3.196-3.973 0.374-1.45 0.023-2.968-1.054-4.555v0c-1.065-1.57-2.345-2.455-3.837-2.654-1.498-0.195-3.125 0.303-4.879 1.493v0l-3.048 2.069c-1.771 1.201-2.842 2.534-3.215 3.999-0.378 1.468-0.034 2.987 1.031 4.557z" fill="#152232" data-fill-palette-color="primary"></path><path d="M253.019 107.706v0c-0.48-1.236-0.69-2.389-0.629-3.459 0.057-1.062 0.361-2.025 0.913-2.889 0.546-0.862 1.29-1.584 2.233-2.167v0l-0.424-1.092 3.51-0.248c-1.185 0.518-2.083 1.178-2.697 1.979-0.619 0.804-0.964 1.699-1.034 2.687-0.069 0.994 0.102 2.018 0.511 3.072v0c0.656 1.687 1.651 2.791 2.987 3.311 1.34 0.512 2.963 0.397 4.87-0.344v0l3.848-1.495c1.894-0.736 3.164-1.742 3.808-3.018 0.639-1.273 0.626-2.763-0.037-4.469v0c-0.395-1.016-0.941-1.836-1.638-2.46-0.706-0.628-1.501-1.066-2.384-1.315-0.884-0.249-1.802-0.3-2.756-0.153v0l2.002-1.731 0.376 0.969c1.007-0.139 1.988-0.087 2.942 0.156 0.951 0.237 1.83 0.733 2.636 1.488 0.804 0.749 1.47 1.804 1.998 3.165v0c0.938 2.415 0.904 4.547-0.102 6.397-1.015 1.846-2.95 3.323-5.804 4.432v0l-3.339 1.298c-2.879 1.119-5.32 1.339-7.325 0.659-2.006-0.686-3.495-2.277-4.465-4.773zM243.805 103.696l-1.287-3.312 27.18-10.563 1.294 3.331-4.89 1.738-1.017 0.449-8.458 3.287-0.688 0.235-5.605 2.297z" fill="#152232" data-fill-palette-color="primary"></path><path d="M13.429 146.399c0-1.872 1.518-3.39 3.391-3.39 1.872 0 3.39 1.518 3.39 3.39 0 1.872-1.518 3.39-3.39 3.391-1.872 0-3.39-1.518-3.391-3.391z" fill="#152232" data-fill-palette-color="primary"></path><path d="M267.54 146.399c0-1.872 1.518-3.39 3.39-3.39 1.872 0 3.39 1.518 3.391 3.39 0 1.872-1.518 3.39-3.391 3.391-1.872 0-3.39-1.518-3.39-3.391z" fill="#152232" data-fill-palette-color="primary"></path></g><g id="text-1"><path d="M33.234 188.108l0.767 2.372-14.499 2.534-1.083-3.351 10.678-5.098-11.657 2.072-1.065-3.294 13.251-6.395 0.798 2.468-11.407 5.11 12.363-2.152 0.876 2.708-11.298 5.446z" fill="#152232" data-fill-palette-color="primary"></path><path d="M33.945 198.096c0.321 0.733 0.31 1.429-0.033 2.087-0.344 0.658-0.959 1.181-1.847 1.57v0l-7.571 3.319-1.041-2.376 7.303-3.201c0.487-0.213 0.808-0.435 0.965-0.666 0.15-0.227 0.17-0.468 0.059-0.72v0c-0.238-0.542-0.981-0.856-2.231-0.94v0l-7.146 3.133-1.041-2.376 14.292-6.265 1.3 2.262-5.547 2.432c0.64 0.102 1.167 0.289 1.581 0.563 0.414 0.274 0.733 0.667 0.957 1.179z" fill="#152232" data-fill-palette-color="primary"></path><path d="M35.327 212.76c-0.112 0.062-0.437 0.218-0.975 0.469v0l-2.786-5.046c-0.978 0.609-1.584 1.175-1.819 1.697-0.235 0.522-0.199 1.059 0.106 1.613v0c0.211 0.383 0.467 0.692 0.766 0.926 0.299 0.235 0.689 0.454 1.17 0.657v0l-0.773 1.649c-1.311-0.398-2.301-1.201-2.968-2.408v0c-0.706-1.278-0.806-2.503-0.299-3.675 0.512-1.175 1.572-2.206 3.18-3.094v0c1.614-0.891 3.07-1.269 4.368-1.131 1.298 0.137 2.275 0.8 2.932 1.989v0c0.634 1.149 0.712 2.27 0.233 3.366-0.476 1.101-1.521 2.097-3.135 2.988zM34.632 210.249l0.133-0.073c0.925-0.511 1.539-0.992 1.842-1.444 0.301-0.458 0.314-0.934 0.041-1.43v0c-0.25-0.454-0.649-0.687-1.194-0.701-0.542-0.008-1.347 0.248-2.413 0.768v0z" fill="#152232" data-fill-palette-color="primary"></path><path d="M44.294 216.29c0.177 0.27 0.293 0.54 0.349 0.809v0l-2.318 1.012c-0.093-0.277-0.204-0.514-0.333-0.711v0c-0.295-0.45-0.722-0.678-1.28-0.682-0.558-0.004-1.266 0.174-2.123 0.534v0l-5.134 3.363-1.421-2.169 9.338-6.118 1.239 1.891-1.525 1.228c1.522-0.378 2.591-0.097 3.208 0.843z" fill="#152232" data-fill-palette-color="primary"></path><path d="M46.35 228.253c-0.101 0.078-0.399 0.281-0.894 0.609v0l-3.509-4.573c-0.876 0.749-1.391 1.398-1.545 1.949-0.154 0.551-0.039 1.077 0.347 1.579v0c0.266 0.347 0.565 0.614 0.895 0.802 0.33 0.187 0.749 0.346 1.255 0.475v0l-0.518 1.746c-1.356-0.198-2.454-0.844-3.294-1.938v0c-0.889-1.158-1.171-2.355-0.845-3.589 0.331-1.238 1.225-2.416 2.683-3.534v0c1.463-1.122 2.846-1.713 4.149-1.771 1.304-0.059 2.369 0.451 3.197 1.529v0c0.799 1.041 1.043 2.139 0.732 3.293-0.306 1.159-1.191 2.3-2.653 3.423zM45.288 225.874l0.12-0.092c0.838-0.643 1.374-1.211 1.606-1.704 0.229-0.498 0.171-0.971-0.173-1.419v0c-0.315-0.411-0.744-0.583-1.285-0.515-0.538 0.073-1.295 0.446-2.271 1.119v0z" fill="#152232" data-fill-palette-color="primary"></path><path d="M61.731 231.478c0.528 0.528 0.906 1.078 1.134 1.649 0.228 0.581 0.354 1.24 0.378 1.977v0l-2.006 0.178c-0.014-0.5-0.088-0.93-0.22-1.292-0.128-0.357-0.335-0.678-0.621-0.964v0c-0.599-0.6-1.368-0.769-2.305-0.507-0.933 0.257-2.101 1.087-3.505 2.49v0c-1.38 1.379-2.204 2.54-2.471 3.482-0.262 0.937-0.084 1.715 0.535 2.334v0c0.309 0.309 0.64 0.516 0.992 0.621 0.352 0.105 0.811 0.183 1.377 0.236v0l-0.136 1.949c-0.676 0.038-1.354-0.05-2.034-0.265-0.68-0.214-1.299-0.6-1.856-1.157v0c-1.161-1.161-1.634-2.539-1.419-4.133 0.219-1.589 1.224-3.278 3.014-5.066v0c1.185-1.184 2.339-2.01 3.462-2.476 1.123-0.466 2.168-0.611 3.133-0.434 0.961 0.181 1.81 0.641 2.548 1.378z" fill="#152232" data-fill-palette-color="primary"></path><path d="M67.505 241.23c0.611 0.517 0.907 1.147 0.888 1.889-0.02 0.742-0.343 1.482-0.969 2.221v0l-5.342 6.309-1.98-1.677 5.153-6.085c0.344-0.406 0.535-0.746 0.574-1.021 0.035-0.27-0.053-0.495-0.263-0.673v0c-0.452-0.383-1.257-0.337-2.417 0.136v0l-5.042 5.954-1.98-1.676 10.085-11.909 2.162 1.461-3.914 4.621c0.619-0.19 1.175-0.253 1.668-0.188 0.492 0.064 0.952 0.277 1.377 0.638z" fill="#152232" data-fill-palette-color="primary"></path><path d="M71.809 244.961l2.093 1.532-6.595 9.007-2.093-1.532zM76.137 241.237c0.375 0.274 0.588 0.614 0.642 1.02 0.059 0.41-0.047 0.799-0.318 1.168v0c-0.266 0.364-0.604 0.58-1.012 0.648-0.403 0.072-0.792-0.029-1.166-0.304v0c-0.375-0.274-0.591-0.616-0.65-1.026-0.059-0.41 0.045-0.797 0.312-1.16v0c0.27-0.369 0.61-0.588 1.018-0.656 0.408-0.068 0.8 0.035 1.174 0.31z" fill="#152232" data-fill-palette-color="primary"></path><path d="M72.306 259.216c-0.636-0.417-1.008-0.942-1.116-1.575-0.113-0.637 0.045-1.285 0.476-1.944v0l7.317-11.171 2.319 1.193-7.41 11.315c-0.1 0.152-0.147 0.298-0.142 0.438 0.014 0.138 0.092 0.253 0.232 0.345v0c0.084 0.055 0.171 0.096 0.259 0.121 0.094 0.029 0.152 0.051 0.174 0.066v0l-0.551 1.762c-0.543-0.042-1.063-0.226-1.558-0.55z" fill="#152232" data-fill-palette-color="primary"></path><path d="M88.816 250.058l2.128 1.508-7.66 13.63-1.997-1.122 0.514-1.182c-1.096 0.604-2.098 0.65-3.008 0.139v0c-1.003-0.564-1.519-1.444-1.549-2.641-0.026-1.203 0.416-2.615 1.326-4.234v0c0.577-1.027 1.222-1.853 1.936-2.478 0.714-0.625 1.435-1.008 2.162-1.147 0.721-0.143 1.401-0.035 2.04 0.324v0c0.786 0.442 1.245 1.128 1.378 2.06v0zM80.395 261.685c0.282 0.158 0.591 0.205 0.928 0.14 0.341-0.071 0.724-0.23 1.149-0.478v0l2.655-4.725c-0.015-0.88-0.274-1.462-0.779-1.746v0c-0.991-0.557-2.128 0.305-3.41 2.588v0c-0.696 1.238-1.071 2.188-1.128 2.851-0.05 0.666 0.145 1.123 0.585 1.37z" fill="#152232" data-fill-palette-color="primary"></path><path d="M96.404 258.643c0.73 0.329 1.188 0.853 1.373 1.571 0.185 0.718 0.079 1.519-0.319 2.403v0l-3.397 7.536-2.365-1.066 3.277-7.269c0.218-0.485 0.309-0.865 0.27-1.141-0.041-0.269-0.187-0.461-0.439-0.574v0c-0.54-0.243-1.302 0.022-2.285 0.797v0l-3.207 7.113-2.364-1.066 6.412-14.226 2.481 0.808-2.488 5.521c0.543-0.353 1.06-0.567 1.551-0.64 0.491-0.074 0.991 0.004 1.5 0.233z" fill="#152232" data-fill-palette-color="primary"></path><path d="M105.306 261.984c1.33 0.456 2.205 1.278 2.622 2.467 0.42 1.182 0.316 2.69-0.312 4.524v0c-0.602 1.757-1.444 3.001-2.527 3.732-1.081 0.725-2.28 0.862-3.598 0.411v0c-1.318-0.451-2.184-1.285-2.6-2.502-0.413-1.223-0.312-2.732 0.303-4.527v0c0.611-1.782 1.452-3.024 2.524-3.723 1.074-0.706 2.27-0.833 3.588-0.382zM104.668 263.846c-0.573-0.196-1.089-0.06-1.548 0.408-0.455 0.477-0.911 1.381-1.367 2.712v0c-0.46 1.343-0.657 2.343-0.59 2.999 0.073 0.658 0.396 1.085 0.97 1.281v0c0.573 0.196 1.09 0.057 1.551-0.418 0.455-0.477 0.913-1.387 1.373-2.73v0c0.46-1.343 0.656-2.34 0.587-2.989-0.078-0.645-0.403-1.066-0.976-1.263z" fill="#152232" data-fill-palette-color="primary"></path><path d="M115.835 264.999c1.366 0.334 2.311 1.073 2.835 2.219 0.525 1.14 0.558 2.651 0.099 4.533v0c-0.441 1.804-1.167 3.12-2.179 3.946-1.011 0.82-2.193 1.065-3.546 0.735v0c-1.353-0.33-2.292-1.082-2.816-2.256-0.522-1.18-0.558-2.692-0.108-4.536v0c0.447-1.83 1.172-3.142 2.177-3.937 1.006-0.8 2.185-1.035 3.538-0.705zM115.369 266.911c-0.588-0.144-1.09 0.039-1.505 0.546-0.41 0.516-0.782 1.458-1.116 2.824v0c-0.337 1.379-0.442 2.393-0.316 3.04 0.133 0.649 0.493 1.045 1.081 1.189v0c0.588 0.144 1.091-0.042 1.508-0.557 0.41-0.516 0.783-1.464 1.12-2.843v0c0.337-1.379 0.441-2.389 0.314-3.03-0.136-0.636-0.498-1.025-1.086-1.169z" fill="#152232" data-fill-palette-color="primary"></path><path d="M128.746 262.88l2.524 0.658-2.342 15.459-2.266-0.344 0.062-1.287c-0.811 0.952-1.733 1.35-2.763 1.194v0c-1.138-0.172-1.932-0.813-2.384-1.923-0.45-1.116-0.536-2.593-0.258-4.429v0c0.176-1.164 0.488-2.165 0.935-3.002 0.447-0.837 0.985-1.45 1.616-1.838 0.624-0.389 1.298-0.528 2.024-0.418v0c0.892 0.135 1.564 0.615 2.017 1.439v0zM124.983 276.735c0.319 0.048 0.625-0.018 0.918-0.198 0.294-0.187 0.595-0.471 0.905-0.853v0l0.812-5.359c-0.325-0.818-0.774-1.271-1.346-1.358v0c-1.124-0.17-1.883 1.038-2.275 3.627v0c-0.213 1.404-0.228 2.426-0.046 3.066 0.189 0.641 0.533 0.999 1.032 1.075z" fill="#152232" data-fill-palette-color="primary"></path><path d="M142.055 265.142c1.225 0.017 2.282 0.216 3.171 0.598 0.883 0.389 1.597 1.115 2.141 2.179 0.544 1.071 0.803 2.578 0.776 4.523v0c-0.037 2.738-0.608 4.642-1.713 5.711-1.105 1.068-2.539 1.591-4.302 1.566v0l-3.522-0.048 0.199-14.574zM142.431 267.145l-0.969-0.013-0.144 10.567 0.989 0.014c0.632 0.009 1.166-0.129 1.601-0.412 0.435-0.29 0.778-0.827 1.031-1.612 0.26-0.784 0.399-1.879 0.418-3.285v0c0.02-1.44-0.097-2.538-0.348-3.295-0.252-0.764-0.588-1.28-1.009-1.548-0.427-0.268-0.95-0.407-1.569-0.416z" fill="#152232" data-fill-palette-color="primary"></path><path d="M155.694 267.815c0.322-0.023 0.614 0.007 0.876 0.089v0l-0.246 2.517c-0.287-0.054-0.548-0.072-0.783-0.055v0c-0.537 0.038-0.943 0.3-1.219 0.785-0.276 0.485-0.465 1.19-0.568 2.114v0l0.435 6.122-2.587 0.184-0.792-11.136 2.255-0.16 0.33 1.93c0.412-1.513 1.178-2.31 2.299-2.39z" fill="#152232" data-fill-palette-color="primary"></path><path d="M167.142 271.849c0.019 0.127 0.051 0.486 0.096 1.077v0l-5.702 0.836c0.227 1.13 0.543 1.896 0.949 2.299 0.406 0.403 0.922 0.559 1.547 0.467v0c0.433-0.063 0.812-0.194 1.137-0.391 0.325-0.197 0.667-0.485 1.026-0.864v0l1.272 1.303c-0.834 1.088-1.933 1.732-3.298 1.931v0c-1.445 0.212-2.627-0.125-3.545-1.011-0.92-0.892-1.513-2.247-1.779-4.064v0c-0.267-1.824-0.109-3.32 0.475-4.487 0.584-1.167 1.548-1.849 2.894-2.046v0c1.298-0.19 2.376 0.131 3.232 0.965 0.863 0.832 1.429 2.161 1.696 3.985zM164.547 271.617l-0.022-0.15c-0.153-1.045-0.388-1.79-0.704-2.233-0.323-0.442-0.764-0.623-1.324-0.54v0c-0.513 0.075-0.871 0.366-1.076 0.871-0.198 0.505-0.241 1.348-0.13 2.529v0z" fill="#152232" data-fill-palette-color="primary"></path><path d="M177.68 272.646c0.083 0.354 0.194 0.604 0.333 0.751 0.138 0.147 0.329 0.251 0.571 0.311v0l-0.115 1.801c-0.579 0.067-1.063 0.022-1.452-0.135-0.388-0.15-0.72-0.446-0.997-0.885v0c-0.385 1.183-1.147 1.909-2.287 2.178v0c-0.904 0.213-1.693 0.078-2.367-0.407-0.681-0.483-1.14-1.228-1.377-2.237v0c-0.278-1.179-0.123-2.163 0.465-2.951 0.588-0.789 1.58-1.347 2.976-1.676v0l0.845-0.199-0.179-0.757c-0.162-0.688-0.398-1.144-0.706-1.368-0.302-0.226-0.722-0.276-1.259-0.149v0c-0.642 0.151-1.398 0.52-2.27 1.105v0l-0.966-1.504c0.491-0.379 1.013-0.702 1.565-0.97 0.559-0.27 1.106-0.468 1.644-0.595v0c2.377-0.56 3.85 0.364 4.418 2.775v0zM173.98 274.68c0.655-0.154 1.049-0.724 1.184-1.711v0l-0.537-2.279-0.6 0.141c-0.694 0.164-1.167 0.445-1.419 0.843-0.247 0.39-0.293 0.913-0.139 1.568v0c0.133 0.563 0.331 0.963 0.594 1.197 0.258 0.243 0.564 0.323 0.917 0.24z" fill="#152232" data-fill-palette-color="primary"></path><path d="M187.996 259.992c0.7-0.241 1.357-0.162 1.972 0.238 0.615 0.4 1.08 1.058 1.395 1.975v0l2.694 7.815-2.414 0.832-2.605-7.558c-0.173-0.503-0.365-0.842-0.575-1.018-0.208-0.17-0.436-0.213-0.685-0.128v0c-0.522 0.18-0.852 0.842-0.992 1.986v0l2.586 7.501-2.396 0.826-2.605-7.558c-0.325-0.942-0.738-1.326-1.24-1.153v0c-0.547 0.189-0.884 0.853-1.011 1.993v0l2.585 7.5-2.414 0.833-3.638-10.555 2.138-0.737 0.623 1.312c0.316-1.333 0.961-2.168 1.934-2.503v0c0.49-0.169 0.966-0.162 1.427 0.021 0.468 0.18 0.891 0.519 1.268 1.015v0c0.303-1.414 0.953-2.293 1.953-2.637z" fill="#152232" data-fill-palette-color="primary"></path><path d="M195.705 256.653c1.2-0.564 2.4-0.644 3.6-0.241v0l-0.304 1.704c-0.473-0.09-0.899-0.124-1.275-0.104-0.383 0.024-0.739 0.113-1.068 0.267v0c-0.372 0.174-0.614 0.411-0.726 0.709-0.122 0.295-0.102 0.613 0.058 0.955v0c0.163 0.347 0.412 0.569 0.746 0.664 0.338 0.102 0.929 0.125 1.773 0.07v0c1.037-0.071 1.878 0.033 2.521 0.311 0.641 0.272 1.145 0.8 1.515 1.586v0c0.461 0.981 0.48 1.916 0.057 2.805-0.422 0.89-1.16 1.582-2.214 2.077v0c-0.688 0.323-1.379 0.499-2.072 0.527-0.696 0.022-1.365-0.088-2.006-0.329v0l0.55-1.797c1.004 0.287 1.875 0.257 2.612-0.09v0c0.42-0.197 0.701-0.463 0.842-0.796 0.138-0.34 0.114-0.708-0.072-1.104v0c-0.137-0.292-0.301-0.506-0.49-0.64-0.189-0.134-0.451-0.223-0.784-0.267-0.324-0.041-0.786-0.036-1.387 0.015v0c-1.037 0.071-1.853-0.036-2.448-0.322-0.586-0.282-1.046-0.78-1.381-1.492v0c-0.401-0.853-0.429-1.698-0.087-2.535 0.343-0.837 1.023-1.495 2.04-1.973z" fill="#152232" data-fill-palette-color="primary"></path><path d="M207.819 245.992c0.632-0.397 1.252-0.644 1.859-0.74 0.617-0.094 1.287-0.07 2.012 0.071v0l-0.272 1.995c-0.49-0.097-0.927-0.121-1.309-0.071-0.377 0.046-0.736 0.176-1.077 0.391v0c-0.718 0.451-1.053 1.163-1.007 2.135 0.043 0.966 0.593 2.29 1.649 3.97v0c1.038 1.652 1.987 2.713 2.846 3.183 0.856 0.464 1.654 0.463 2.395-0.003v0c0.37-0.233 0.646-0.509 0.826-0.829 0.18-0.32 0.359-0.75 0.536-1.291v0l1.869 0.566c-0.113 0.667-0.35 1.309-0.71 1.924-0.36 0.616-0.873 1.133-1.54 1.552v0c-1.39 0.874-2.838 1.029-4.344 0.466-1.501-0.567-2.924-1.921-4.271-4.064v0c-0.892-1.419-1.44-2.727-1.645-3.926-0.205-1.199-0.114-2.249 0.273-3.151 0.39-0.897 1.027-1.623 1.91-2.178z" fill="#152232" data-fill-palette-color="primary"></path><path d="M217.584 243.271c1.121-0.849 2.291-1.115 3.511-0.798 1.215 0.312 2.408 1.24 3.579 2.785v0c1.121 1.48 1.683 2.874 1.685 4.181-0.002 1.301-0.558 2.373-1.668 3.214v0c-1.11 0.841-2.286 1.094-3.527 0.76-1.245-0.34-2.441-1.266-3.587-2.779v0c-1.138-1.502-1.697-2.893-1.679-4.173 0.014-1.285 0.576-2.349 1.686-3.19zM218.773 244.84c-0.483 0.366-0.658 0.87-0.526 1.513 0.142 0.644 0.637 1.526 1.486 2.647v0c0.857 1.132 1.577 1.853 2.159 2.164 0.587 0.307 1.122 0.277 1.604-0.088v0c0.483-0.366 0.656-0.873 0.52-1.521-0.142-0.644-0.641-1.532-1.499-2.663v0c-0.857-1.132-1.575-1.85-2.152-2.156-0.579-0.296-1.11-0.261-1.592 0.104z" fill="#152232" data-fill-palette-color="primary"></path><path d="M230.245 232.109c0.54-0.506 1.173-0.702 1.898-0.588 0.725 0.114 1.418 0.525 2.08 1.232v0l5.653 6.032-1.864 1.746-5.466-5.833c-0.363-0.388-0.677-0.62-0.941-0.695-0.26-0.07-0.485-0.016-0.677 0.163v0c-0.403 0.377-0.434 1.117-0.094 2.218v0l5.425 5.79-1.849 1.732-5.466-5.834c-0.681-0.727-1.215-0.908-1.603-0.545v0c-0.422 0.396-0.458 1.14-0.108 2.232v0l5.424 5.789-1.863 1.747-7.633-8.147 1.65-1.546 1.104 0.943c-0.256-1.346-0.009-2.371 0.743-3.075v0c0.378-0.354 0.815-0.542 1.311-0.564 0.501-0.027 1.025 0.11 1.572 0.408v0c-0.302-1.414-0.067-2.482 0.704-3.205z" fill="#152232" data-fill-palette-color="primary"></path><path d="M243.32 225.879c0.097 0.083 0.357 0.333 0.781 0.749v0l-3.749 4.377c0.913 0.703 1.655 1.072 2.226 1.109 0.571 0.037 1.062-0.185 1.473-0.665v0c0.285-0.332 0.484-0.679 0.6-1.041 0.115-0.362 0.184-0.804 0.205-1.326v0l1.815 0.146c0.087 1.368-0.319 2.575-1.216 3.623v0c-0.95 1.109-2.062 1.632-3.336 1.568-1.279-0.068-2.617-0.7-4.012-1.895v0c-1.4-1.199-2.264-2.431-2.591-3.694-0.327-1.263-0.048-2.411 0.836-3.443v0c0.854-0.997 1.877-1.462 3.071-1.397 1.198 0.06 2.497 0.69 3.897 1.889zM241.212 227.409l-0.115-0.098c-0.802-0.687-1.469-1.094-1.999-1.22-0.534-0.121-0.985 0.033-1.353 0.462v0c-0.337 0.394-0.416 0.848-0.238 1.365 0.183 0.511 0.704 1.174 1.564 1.99v0z" fill="#152232" data-fill-palette-color="primary"></path><path d="M240.299 215.301l4.963-7.609 1.607 1.398-1.638 2.511 10.441 6.81-1.461 2.24-10.441-6.81-1.704 2.613z" fill="#152232" data-fill-palette-color="primary"></path><path d="M251.261 203.391c0.157-0.282 0.342-0.51 0.555-0.684v0l1.97 1.585c-0.202 0.211-0.361 0.419-0.475 0.624v0c-0.262 0.47-0.266 0.953-0.011 1.45 0.255 0.497 0.741 1.041 1.458 1.634v0l5.359 2.99-1.264 2.265-9.749-5.438 1.101-1.975 1.795 0.782c-1.04-1.174-1.287-2.251-0.739-3.233z" fill="#152232" data-fill-palette-color="primary"></path><path d="M255.988 194.048l10.114 4.726-0.957 2.049-1.332-0.489c0.373 0.568 0.6 1.109 0.68 1.621 0.071 0.516-0.016 1.036-0.261 1.561v0c-0.345 0.738-0.876 1.199-1.594 1.383-0.724 0.182-1.506 0.076-2.348-0.317v0l-7.571-3.539 1.098-2.35 7.435 3.475c0.792 0.37 1.314 0.287 1.565-0.25v0c0.142-0.305 0.152-0.635 0.028-0.989-0.121-0.346-0.349-0.724-0.685-1.134v0l-7.27-3.397z" fill="#152232" data-fill-palette-color="primary"></path><path d="M264.761 185.512c0.12 0.043 0.452 0.184 0.995 0.423v0l-1.955 5.422c1.103 0.333 1.928 0.416 2.475 0.248 0.547-0.168 0.928-0.549 1.142-1.143v0c0.148-0.411 0.212-0.807 0.192-1.187-0.021-0.379-0.113-0.817-0.278-1.312v0l1.749-0.507c0.566 1.248 0.614 2.521 0.147 3.819v0c-0.495 1.374-1.35 2.256-2.565 2.648-1.221 0.39-2.695 0.273-4.423-0.35v0c-1.734-0.625-2.978-1.471-3.731-2.537-0.753-1.066-0.899-2.238-0.438-3.516v0c0.445-1.234 1.237-2.032 2.376-2.394 1.141-0.368 2.579-0.239 4.314 0.386zM263.332 187.69l-0.143-0.052c-0.994-0.358-1.761-0.503-2.301-0.433-0.543 0.076-0.91 0.38-1.101 0.912v0c-0.176 0.487-0.089 0.941 0.26 1.36 0.352 0.413 1.074 0.849 2.168 1.308v0z" fill="#152232" data-fill-palette-color="primary"></path><path d="M257.122 180.519l0.766-2.657 8.997 2.971-0.568 1.969zM268.652 182.393c0.129-0.446 0.39-0.77 0.784-0.972 0.394-0.202 0.808-0.24 1.241-0.115v0c0.433 0.125 0.763 0.378 0.99 0.758 0.226 0.38 0.275 0.794 0.147 1.24v0c-0.129 0.446-0.39 0.77-0.785 0.972-0.394 0.202-0.808 0.24-1.241 0.114v0c-0.433-0.125-0.763-0.378-0.989-0.757-0.226-0.38-0.275-0.794-0.147-1.24z" fill="#152232" data-fill-palette-color="primary"></path></g></svg></g></svg></g></svg></g><g></g></svg></g><defs></defs></svg><rect width="279.72" height="279.72" fill="none" stroke="none" visibility="hidden"></rect></g></svg></g></svg>